#!OML:ASF E:/inclinewalkrobotboard/Project1/Captureday1/Session1/subject1.ASF
:FULLY-SPECIFIED
:DEGREES
263
root 0 0 0 45.00372217369426 -47.16178750246819 -18.508583640008908
lowerback -6.4868096645309175 3.6043572800995825 -0.483602118324098
upperback -13.442040676673873 4.310723351715788 -0.08310341349982409
thorax -11.044570483011782 2.111896542217328 0.6775571305215715
lowerneck -11.438283542261447 6.767903456006471 4.440962920779023
upperneck 18.16984205779303 7.238961121269181 7.284150601921853
head 7.632910951079442 4.231121643120387 2.162929361854648
rclavicle 9.229177837097967E-16 -1.8339970728981298E-15
rhumerus 7.790868862202629 -22.479549538683163 -48.46615680951031
rradius 27.945940424630987
rwrist 21.208186187244763
rhand 0.797905720156832 7.406220691980284
rfingers 7.1250200000000286
rthumb 26.418492029209883 -19.65237456311918
lclavicle 1.463528353189135E-15 -9.143049439870511E-16
lhumerus -10.576466747298904 3.846130642218677 51.468548935535864
lradius 35.646378570591516
lwrist -7.733383026953121
lhand -1.773376252166237 23.31621142464237
lfingers 7.125019999999975
lthumb 23.496829234507363 50.48916505809001
rfemur 58.705696340519204 -81.67995749457242 -55.87170260886717
rtibia 40.215099590145364
rfoot -18.415830522942493 -17.94510223369311
rtoes 21.611350011875146
lfemur -44.69989259052763 8.208400857483818 -27.116813765179167
ltibia 44.041603492202256
lfoot -22.75847039499842 14.88971536834919
ltoes 10.861128462000423
264
root 0 0 0 45.003665743520116 -47.161702090324695 -18.508557880379183
lowerback -6.486800015587904 3.6043487817917454 -0.4836043726963975
upperback -13.442031108689402 4.310713321323323 -0.08309566473375041
thorax -11.04456445988474 2.111892222750134 0.677565941634491
lowerneck -11.438280531694236 6.767885782664363 4.440949602931824
upperneck 18.169850019491637 7.238940616841589 7.284142985355373
head 7.632913221576813 4.231110465744909 2.1629269026715057
rclavicle 9.229978697090103E-16 -1.8340477352425174E-15
rhumerus 7.790085494377882 -22.479604668384336 -48.465816624970884
rradius 27.94610743675092
rwrist 21.207719893124576
rhand 0.7977761745175336 7.406391627201095
rfingers 7.1250200000000286
rthumb 26.418373754017807 -19.652225829382655
lclavicle 1.4636680388721813E-15 -9.14290362971607E-16
lhumerus -10.576547583480519 3.8458659720781503 51.46904899913719
lradius 35.646628802242276
lwrist -7.732992429801883
lhand -1.7732785327486038 23.316126349685298
lfingers 7.125019999999975
lthumb 23.496901850140752 50.48905278022061
rfemur 58.70550698435014 -81.67973993125011 -55.87148500011692
rtibia 40.2151006016189
rfoot -18.415814610473035 -17.945075779775994
rtoes 21.611320913775167
lfemur -44.69988154400198 8.208399590879447 -27.11680830660793
ltibia 44.04159843212882
lfoot -22.75846549914945 14.889709772722242
ltoes 10.86112654429471
265
root 0 0 0 45.00361209309419 -47.16162079132506 -18.508533359432903
lowerback -6.486790873158987 3.6043406705982166 -0.48360654700157
upperback -13.442022077262045 4.310703745541398 -0.08308826909387035
thorax -11.044558777186612 2.1118881018058318 0.6775743677847483
lowerneck -11.438277604524393 6.7678689784808865 4.440936919271956
upperneck 18.169857556596586 7.238921125988293 7.284135777776262
head 7.632915357235927 4.231099839644667 2.162924575256044
rclavicle 9.230737267907414E-16 -1.834095750926055E-15
rhumerus 7.789343866927657 -22.47965690531107 -48.46549406873449
rradius 27.946265558259956
rwrist 21.207278420753543
rhand 0.7976537875672811 7.4065532676843375
rfingers 7.1250200000000286
rthumb 26.418262038346242 -19.652085169604085
lclavicle 1.463800419811432E-15 -9.142765911212107E-16
lhumerus -10.576623813589222 3.845615202086283 51.46952250385062
lradius 35.646866042450114
lwrist -7.732622387688451
lhand -1.7731856376774093 23.31604572064149
lfingers 7.125019999999975
lthumb 23.496970962876528 50.488946325820834
rfemur 58.705326429525 -81.67953256668656 -55.87127764038965
rtibia 40.215101572675046
rfoot -18.41579952211599 -17.94505057125728
rtoes 21.611293275618003
lfemur -44.69987085497873 8.20839831988123 -27.1168030763458
ltibia 44.04159356987136
lfoot -22.758460803988417 14.889704362377419
ltoes 10.861124648437917
266
root 0 0 0 45.00356112600177 -47.161543488371606 -18.50851004120395
lowerback -6.48678221085148 3.604332939536417 -0.48360863807390164
upperback -13.442013551835927 4.310694616367647 -0.08308122059849099
thorax -11.044553416839005 2.111884175324647 0.6775824122311034
lowerneck -11.43827477079507 6.7678530158436345 4.440924853043928
upperneck 18.169864685302894 7.238902615716638 7.2841289599828904
head 7.632917365382279 4.231089747048553 2.1629223735074636
rclavicle 9.231455645383486E-16 -1.8341412463472845E-15
rhumerus 7.788641836596041 -22.479706388818453 -48.46518832883364
rradius 27.946415243062315
rwrist 21.206860500303286
rhand 0.7975381454797112 7.406706124293492
rfingers 7.1250200000000286
rthumb 26.418156499024906 -19.651952142461084
lclavicle 1.4639258520585216E-15 -9.142635787178184E-16
lhumerus -10.576695737277221 3.8453776418976418 51.469970826891625
lradius 35.64709090574278
lwrist -7.73227187160953
lhand -1.7730973884866508 23.31596932178287
lfingers 7.125019999999975
lthumb 23.4970366848371 50.48884542091232
rfemur 58.70515438839425 -81.6793350538527 -55.87108017318084
rtibia 40.2151025035605
rfoot -18.415785216293173 -17.94502656489145
rtoes 21.61126703219702
lfemur -44.69986051899486 8.208397048722087 -27.116798066138177
ltibia 44.04158889973264
lfoot -22.75845630656465 14.889699135119836
ltoes 10.861122779203312
